<svg height="464.784pt" viewBox="0 0 464.784 464.784" width="464.784pt" xmlns="http://www.w3.org/2000/svg"><path d="m464.785156 232c.210938 125.863281-99.816406 229.019531-225.628906 232.683594-125.808594 3.667968-231.671875-93.496094-238.785156-219.160156-7.113282-125.660157 87.109375-234.148438 212.53125-244.703126 125.421875-10.558593 236.449218 80.652344 250.441406 205.738282.960938 8.445312 1.441406 16.941406 1.441406 25.441406zm0 0" fill="#91dc5a"/><path d="m464.785156 232c0 71.117188-32.617187 138.308594-88.5 182.300781-55.878906 43.988281-128.851562 59.917969-197.980468 43.21875l-89.519532-89.519531 288-248 86.558594 86.558594c.960938 8.445312 1.441406 16.941406 1.441406 25.441406zm0 0" fill="#6da544"/><path d="m232.785156 96v248h120v-248zm0 0" fill="#ffeb99"/><path d="m112.785156 96v248h120v-248zm0 0" fill="#ffeb99"/><path d="m232.785156 344h-120v-224h-24v248h144zm0 0" fill="#fbb040"/><path d="m232.785156 344v24h144v-248h-24v224zm0 0" fill="#fbb040"/><path d="m224.785156 96h16v288h-16zm0 0" fill="#a0815c"/><g fill="#ff9811"><path d="m136.785156 128h72v16h-72zm0 0"/><path d="m256.785156 128h24v16h-24zm0 0"/><path d="m296.785156 128h32v16h-32zm0 0"/></g></svg>