<?xml version="1.0" encoding="UTF-8" standalone="no"?><!-- Generator: Gravit.io --><svg xmlns="http://www.w3.org/2000/svg" xmlns:xlink="http://www.w3.org/1999/xlink" style="isolation:isolate" viewBox="547 398.712 335 60.289" width="335pt" height="60.289pt"><defs><clipPath id="_clipPath_QtyhebmlCZG1QSa3LtPWpE9K8dTTeIyr"><rect x="547" y="398.712" width="335" height="60.289"/></clipPath></defs><g clip-path="url(#_clipPath_QtyhebmlCZG1QSa3LtPWpE9K8dTTeIyr)"><text transform="matrix(1,0,0,1,632,442.486)" style="font-family:'PT Sans Caption';font-weight:700;font-size:43px;font-style:normal;fill:#4a4a4a;stroke:none;">Halal Editor</text><g><path d=" M 607 428.95 C 607.027 445.198 594.115 458.514 577.874 458.987 C 561.633 459.461 547.967 446.918 547.049 430.696 C 546.13 414.475 558.294 400.47 574.484 399.107 C 590.675 397.744 605.008 409.519 606.814 425.666 C 606.938 426.756 607 427.853 607 428.95 L 607 428.95 Z " fill="rgb(145,220,90)"/><path d=" M 607 428.95 C 607 438.131 602.789 446.805 595.575 452.484 C 588.362 458.162 578.942 460.218 570.018 458.063 L 558.462 446.507 L 595.64 414.492 L 606.814 425.666 C 606.938 426.756 607 427.853 607 428.95 Z " fill="rgb(109,165,68)"/><path d=" M 577.051 411.394 L 577.051 443.408 L 592.542 443.408 L 592.542 411.394 L 577.051 411.394 Z " fill="rgb(255,235,153)"/><path d=" M 561.56 411.394 L 561.56 443.408 L 577.051 443.408 L 577.051 411.394 L 561.56 411.394 Z " fill="rgb(255,235,153)"/><path d=" M 577.051 443.408 L 561.56 443.408 L 561.56 414.492 L 558.462 414.492 L 558.462 446.507 L 577.051 446.507 L 577.051 443.408 Z " fill="rgb(251,176,64)"/><path d=" M 577.051 443.408 L 577.051 446.507 L 595.64 446.507 L 595.64 414.492 L 592.542 414.492 L 592.542 443.408 L 577.051 443.408 Z " fill="rgb(251,176,64)"/><path d=" M 576.018 411.394 L 578.084 411.394 L 578.084 448.572 L 576.018 448.572 L 576.018 411.394 Z " fill="rgb(160,129,92)"/><g><path d=" M 564.658 415.525 L 573.953 415.525 L 573.953 417.59 L 564.658 417.59 L 564.658 415.525 Z " fill="rgb(255,152,17)"/><path d=" M 580.149 415.525 L 583.247 415.525 L 583.247 417.59 L 580.149 417.59 L 580.149 415.525 Z " fill="rgb(255,152,17)"/><path d=" M 585.313 415.525 L 589.444 415.525 L 589.444 417.59 L 585.313 417.59 L 585.313 415.525 Z " fill="rgb(255,152,17)"/></g></g></g></svg>